<svg width="12" height="9" viewBox="0 0 12 9" fill="none" xmlns="http://www.w3.org/2000/svg">
<path d="M5.92425 1.78802C7.96486 1.78802 9.78471 2.93485 10.6731 4.74932C9.78471 6.56379 7.97024 7.71062 5.92425 7.71062C3.87826 7.71062 2.06379 6.56379 1.1754 4.74932C2.06379 2.93485 3.88365 1.78802 5.92425 1.78802ZM5.92425 0.711182C3.3323 0.711182 1.1047 2.2634 0.111226 4.48845C0.0371057 4.65445 0.0371059 4.84419 0.111226 5.01019C1.1047 7.23524 3.3323 8.78746 5.92425 8.78746C8.5162 8.78746 10.7438 7.23524 11.7373 5.01019C11.8114 4.84419 11.8114 4.65445 11.7373 4.48845C10.7438 2.2634 8.5162 0.711182 5.92425 0.711182ZM5.92425 3.40327C6.66727 3.40327 7.2703 4.0063 7.2703 4.74932C7.2703 5.49234 6.66727 6.09537 5.92425 6.09537C5.18123 6.09537 4.57821 5.49234 4.57821 4.74932C4.57821 4.0063 5.18123 3.40327 5.92425 3.40327ZM5.92425 2.32644C4.58897 2.32644 3.50137 3.41404 3.50137 4.74932C3.50137 6.0846 4.58897 7.1722 5.92425 7.1722C7.25953 7.1722 8.34713 6.0846 8.34713 4.74932C8.34713 3.41404 7.25953 2.32644 5.92425 2.32644Z" fill="#86C9F6"/>
</svg>
